<?xml version="1.0" encoding="UTF-8"?><svg id="uuid-fb30788e-86bd-4b8b-8663-80869f5bca9d" xmlns="http://www.w3.org/2000/svg" viewBox="0 0 286.3 112.28"><g id="uuid-6f7a08fc-f946-4f7e-b356-13ffa53bc831"><g id="uuid-86692b6e-998c-4f0c-9fe5-3a7ebf420bc1"><g id="uuid-abe0f033-e39a-4633-b81f-05d16d6a002a"><path d="M26.34,79.94c-1.54,1.34-3.38,2.36-5.54,3.05-2.15.7-4.31,1.05-6.46,1.05-4.59,0-8.12-1.37-10.61-4.12C1.24,77.18,0,73.35,0,68.44,0,65.31.54,62.56,1.61,60.19c1.08-2.37,2.66-4.22,4.74-5.54,2.08-1.32,4.61-1.99,7.57-1.99,3.49,0,6.21.82,8.16,2.45,1.94,1.63,3.19,3.83,3.75,6.59l-4.58.56c-.5.06-.99-.22-1.16-.7-.4-1.16-.99-2.1-1.77-2.83-.95-.89-2.43-1.34-4.45-1.34-1.9,0-3.45.47-4.63,1.42s-2.06,2.24-2.62,3.87c-.56,1.63-.84,3.51-.84,5.63,0,3.43.71,6.12,2.12,8.05,1.41,1.94,3.61,2.91,6.61,2.91,1.26,0,2.45-.14,3.56-.42,1.12-.28,2.12-.71,3.02-1.3v-6.39h-9.22l.58-3.2c.14-.79.83-1.36,1.63-1.36h12.25v13.34Z" fill="#09305c" stroke-width="0"/><path d="M30.87,61.58l3.77-.6v3.61c1.62-2.29,3.7-3.43,6.25-3.43.39,0,.76.01,1.11.04.35.03.66.07.94.13l-.53,3.91c-.05.38-.4.65-.77.59-.42-.07-.85-.1-1.3-.1-.7,0-1.36.1-1.99.31-.63.21-1.22.55-1.78,1.02-.56.45-1,.99-1.32,1.63-.32.64-.48,1.41-.48,2.3v12.3h-5.28v-20.07c0-.81.59-1.51,1.39-1.63Z" fill="#09305c" stroke-width="0"/><path d="M53.56,83.96c-3.41,0-6.04-1-7.88-2.99-1.85-1.99-2.77-4.79-2.77-8.39,0-2.51.45-4.64,1.34-6.38.89-1.74,2.14-3.07,3.73-3.98,1.59-.91,3.44-1.36,5.54-1.36,2.26,0,4.14.45,5.62,1.36,1.48.91,2.59,2.17,3.31,3.79s1.09,3.5,1.09,5.65v.31c0,.91-.74,1.66-1.66,1.66h-13.78c.11,2.09.61,3.68,1.51,4.77.89,1.09,2.19,1.63,3.9,1.63,1.48,0,2.59-.28,3.31-.84.55-.42.97-.98,1.25-1.66.17-.41.57-.68,1.01-.68h4.16c-.36,2.23-1.34,3.98-2.94,5.23s-3.84,1.88-6.75,1.88ZM57.29,66.13c-.7-.98-1.96-1.46-3.77-1.46s-3.12.52-3.9,1.57c-.78,1.05-1.27,2.42-1.47,4.12h10.32c-.08-1.84-.48-3.25-1.17-4.23Z" fill="#09305c" stroke-width="0"/><path d="M276.32,83.96c-3.41,0-6.04-1-7.88-2.99-1.85-1.99-2.77-4.79-2.77-8.39,0-2.51.45-4.64,1.34-6.38.89-1.74,2.14-3.07,3.73-3.98,1.59-.91,3.44-1.36,5.54-1.36,2.26,0,4.14.45,5.62,1.36,1.48.91,2.59,2.17,3.31,3.79s1.09,3.5,1.09,5.65v.31c0,.91-.74,1.66-1.66,1.66h-13.78c.11,2.09.61,3.68,1.51,4.77.89,1.09,2.19,1.63,3.9,1.63,1.48,0,2.59-.28,3.31-.84.55-.42.97-.98,1.25-1.66.17-.41.57-.68,1.01-.68h4.16c-.36,2.23-1.34,3.98-2.94,5.23s-3.84,1.88-6.75,1.88ZM280.05,66.13c-.7-.98-1.96-1.46-3.77-1.46s-3.12.52-3.9,1.57c-.78,1.05-1.27,2.42-1.47,4.12h10.32c-.08-1.84-.48-3.25-1.17-4.23Z" fill="#09305c" stroke-width="0"/><path d="M65.33,76.72h4.18c.48,0,.89.31,1.04.76.28.83.74,1.44,1.38,1.83.82.5,1.96.75,3.42.75s2.54-.25,3.19-.75c.64-.5.96-1.17.96-2.01,0-.73-.21-1.34-.63-1.84-.42-.5-1.29-.85-2.6-1.05l-2.6-.42c-2.63-.42-4.59-1.12-5.89-2.09s-1.95-2.47-1.95-4.48.85-3.68,2.54-4.83c1.69-1.16,3.89-1.74,6.6-1.74,2.07,0,3.74.26,5.01.77,1.27.52,2.25,1.23,2.94,2.15.68.92,1.15,1.99,1.41,3.22l-4.86.63c-.31-1-.77-1.76-1.38-2.28-.62-.52-1.64-.77-3.06-.77-1.57,0-2.66.27-3.27.8-.62.53-.92,1.14-.92,1.84s.23,1.3.69,1.74c.46.43,1.38.76,2.75.98l2.89.5c2.74.5,4.68,1.26,5.83,2.28,1.15,1.02,1.72,2.53,1.72,4.54s-.78,3.63-2.33,4.85c-1.55,1.23-3.87,1.84-6.94,1.84-2.88,0-5.24-.56-7.09-1.69-1.85-1.13-2.85-2.98-3.02-5.54Z" fill="#09305c" stroke-width="0"/><path d="M244.59,76.72h4.18c.48,0,.89.31,1.04.76.28.83.74,1.44,1.38,1.83.82.5,1.96.75,3.42.75s2.54-.25,3.19-.75c.64-.5.96-1.17.96-2.01,0-.73-.21-1.34-.63-1.84-.42-.5-1.29-.85-2.6-1.05l-2.6-.42c-2.63-.42-4.59-1.12-5.89-2.09s-1.95-2.47-1.95-4.48.85-3.68,2.54-4.83c1.69-1.16,3.89-1.74,6.6-1.74,2.07,0,3.74.26,5.01.77,1.27.52,2.25,1.23,2.94,2.15.68.92,1.15,1.99,1.41,3.22l-4.86.63c-.31-1-.77-1.76-1.38-2.28-.62-.52-1.64-.77-3.06-.77-1.57,0-2.66.27-3.27.8-.62.53-.92,1.14-.92,1.84s.23,1.3.69,1.74c.46.43,1.38.76,2.75.98l2.89.5c2.74.5,4.68,1.26,5.83,2.28,1.15,1.02,1.72,2.53,1.72,4.54s-.78,3.63-2.33,4.85c-1.55,1.23-3.87,1.84-6.94,1.84-2.88,0-5.24-.56-7.09-1.69-1.85-1.13-2.85-2.98-3.02-5.54Z" fill="#09305c" stroke-width="0"/><path d="M88.45,53.42l3.88-.61v11.53c1.09-1.28,2.22-2.18,3.4-2.7,1.17-.52,2.39-.77,3.65-.77,2.4,0,4.22.68,5.45,2.03,1.23,1.35,1.85,3.3,1.85,5.84v14.56h-5.28v-13.56c0-1.62-.3-2.77-.9-3.45-.6-.68-1.52-1.03-2.75-1.03-.7,0-1.38.13-2.03.38-.66.25-1.25.64-1.78,1.17-.53.47-.93.98-1.2,1.53-.27.54-.4,1.26-.4,2.15v12.8h-5.28v-28.24c0-.82.59-1.51,1.4-1.64Z" fill="#09305c" stroke-width="0"/><path d="M123.24,83.29v-2.68c-.84.95-1.83,1.72-2.98,2.32-1.15.6-2.53.9-4.15.9-2.21,0-4.01-.56-5.39-1.69-1.38-1.13-2.08-2.75-2.08-4.87,0-1.42.3-2.61.9-3.56.6-.95,1.42-1.69,2.45-2.24,1.03-.54,2.22-.93,3.54-1.17,1.33-.24,2.72-.38,4.17-.44l3.35-.13v-.79c0-1.51-.32-2.6-.96-3.28-.64-.68-1.68-1.03-3.1-1.03s-2.43.24-3.1.73c-.4.29-.72.66-.97,1.1-.31.56-.87.93-1.51.87l-3.6-.32c.39-2.12,1.37-3.67,2.94-4.67,1.57-.99,3.7-1.49,6.42-1.49,3.24,0,5.55.73,6.92,2.2,1.37,1.46,2.05,3.58,2.05,6.34v13.89h-4.91ZM115.09,74.25c-.88.64-1.32,1.56-1.32,2.76,0,.89.28,1.61.84,2.16s1.47.82,2.73.82c1.73,0,3.12-.45,4.17-1.34,1.05-.89,1.57-2.15,1.57-3.77v-1.84l-3.1.13c-2.38.08-4,.45-4.89,1.09Z" fill="#09305c" stroke-width="0"/><path d="M132.34,61.58l3.77-.6v3.52c.92-1.23,1.94-2.14,3.06-2.74,1.12-.6,2.28-.9,3.48-.9,1.51,0,2.77.33,3.77.98,1.01.66,1.76,1.58,2.26,2.78,1.87-2.51,4.25-3.77,7.13-3.77,2.15,0,3.82.61,4.99,1.82,1.17,1.21,1.76,3.1,1.76,5.67v14.94h-5.28v-14.02c0-1.53-.27-2.59-.8-3.16-.53-.57-1.3-.86-2.31-.86-.53,0-1.09.1-1.68.29-.59.2-1.15.53-1.68,1-.42.39-.76.85-1.03,1.38s-.4,1.13-.4,1.8v13.56h-5.28v-13.98c0-1.48-.27-2.52-.8-3.14-.53-.61-1.29-.92-2.26-.92-1.2,0-2.32.49-3.36,1.46-.36.36-.7.82-1.01,1.38-.31.56-.46,1.28-.46,2.18v13.01h-5.28v-20.07c0-.81.59-1.51,1.39-1.63Z" fill="#09305c" stroke-width="0"/><path d="M173.93,53.43l4.21-.62v13.36h12.92v-11.1c0-.82.6-1.52,1.41-1.64l4.21-.62v30.48h-5.62v-12.06h-12.92v12.06h-5.62v-28.23c0-.82.6-1.52,1.41-1.64Z" fill="#09305c" stroke-width="0"/><path d="M217.91,80.84c-1.94,2.08-4.62,3.12-8.03,3.12s-6.1-1.01-7.99-3.03c-1.89-2.02-2.83-4.85-2.83-8.47,0-2.4.45-4.46,1.34-6.19.89-1.73,2.16-3.06,3.8-4,1.64-.93,3.57-1.4,5.81-1.4,3.41,0,6.07,1.01,7.97,3.03,1.9,2.02,2.85,4.82,2.85,8.39s-.97,6.48-2.91,8.56ZM209.92,79.69c1.9,0,3.28-.67,4.15-2.01.87-1.34,1.3-3.11,1.3-5.31s-.43-3.96-1.3-5.27c-.87-1.31-2.25-1.97-4.15-1.97s-3.24.66-4.11,1.97c-.87,1.31-1.3,3.07-1.3,5.27s.43,3.98,1.28,5.31c.85,1.34,2.23,2.01,4.13,2.01Z" fill="#09305c" stroke-width="0"/><path d="M237.05,83.29v-3.01c-.98,1.26-2.05,2.18-3.23,2.78-1.17.6-2.45.9-3.82.9-2.38,0-4.15-.68-5.3-2.03-1.16-1.35-1.74-3.31-1.74-5.88v-12.83c0-.82.59-1.51,1.4-1.64l3.88-.61v14.11c0,1.59.27,2.73.82,3.41.55.68,1.42,1.02,2.62,1.02,1.43,0,2.66-.5,3.69-1.51.5-.47.89-.99,1.17-1.55.28-.56.42-1.26.42-2.09v-11.15c0-.82.59-1.51,1.4-1.64l3.88-.61v22.31h-5.2Z" fill="#09305c" stroke-width="0"/></g><g id="uuid-16283cbf-d62c-4116-8e66-25c9c02af995"><path d="M168.38,25.22l.02-.02.02-.02c.6-.76,1.51-1.31,2.49-1.4.25-.02.4-.29.3-.53-.8-1.86-1.57-3.66-2.08-4.87-.83-1.94-1.67-3.12-4.11-3.1-.55,0-1.42.01-2.35.02-.24,0-.4.25-.31.47l4.56,10.68c.09.21.37.24.51.06l.95-1.29Z" fill="#00a3b5" stroke-width="0"/><path d="M157.88,23.07c1.34,3.13,3.25,7.61,4.23,9.91.09.21.37.24.51.06.77-1.04,2.75-3.73,3.34-4.54.11-.14.13-.33.06-.5l-5.28-12.35c-.08-.19-.27-.31-.47-.31-.66.01-1.21.02-1.52.04-1.91.08-3.21,2.19-2.49,3.88.32.76.92,2.15,1.62,3.81Z" fill="#00a3b5" stroke-width="0"/><path d="M148.4,21.63c.15.21.46.18.58-.04l1.04-2.06.04-.07.02-.03c.03-.06.06-.11.1-.17,0-.01.02-.03.03-.04.57-.89,1.53-1.48,2.66-1.6.23-.03.36-.27.27-.48-.36-.79-.81-1.45-1.94-1.45-.29,0-2.78-.13-6.54-.29-.28-.01-.45.3-.29.53,1.41,1.99,2.8,3.95,4.05,5.71Z" fill="#00a3b5" stroke-width="0"/><path d="M202.58.06c-3.77,1.77-7.22,4.06-10.57,6.49-2.08,1.53-4.12,3.14-6.05,4.86-.93.83-1.83,1.68-2.68,2.6-.16.17-.4.24-.63.18-.41-.11-.83-.19-1.27-.25-1.96-.23-4.65-.18-6.91.6-2.68.93-3.47,3.06-2.59,5.13.71,1.67,3.75,8.77,4.57,10.68,1.01,2.53,1.91,2.77,4.11,2.61.31-.02.59-.07.83-.15,1.02-.32,1.8-1.1,2.56-2.94,1.09-2.67,2.02-6.72,2.49-11.05.01-.1.02-.2.02-.3,0-.16.08-.32.2-.43,2.24-2.1,4.79-3.95,7.35-5.66,2.78-1.81,5.68-3.57,8.75-4.81.64-.28.29-1.22-.37-1.02-3.26,1.12-6.27,2.75-9.23,4.47-2.5,1.49-4.93,3.06-7.19,4.89-.11.09-.26.07-.35-.03-.15-.18-.32-.36-.51-.52-.11-.09-.11-.25-.02-.36.86-.96,1.8-1.9,2.73-2.77,4.65-4.24,9.71-8.21,15.29-11.15.71-.39.19-1.42-.54-1.1ZM183.18,20.9c-.25.92-.55,1.47-1.12,1.78-.56.3-1.19.14-1.71-.56-.45-.6-.93-1.43-1.19-2.27-.34-1.09-.32-2.03.59-2.29.98-.29,1.98-.19,2.82.18,1.26.56.81,2.43.61,3.16Z" fill="#00a3b5" stroke-width="0"/><path d="M160.89,35.26s-6.04-14.15-6.29-14.73-.81-.93-1.41-.93-1.12.35-1.36.83c-.35.69-9.06,17.9-10.32,20.39-.09.18-.28.3-.49.3h-5.52c-.67,0-1.26.51-1.3,1.18-.05.74.54,1.35,1.26,1.35h6.68c.48,0,.91-.27,1.13-.69l9.11-18c.09-.17.33-.15.39.03.42,1.39.92,3.06,1.41,4.7,1.1,3.67,2.16,7.21,2.16,7.21.4,1.38,1.96,2.11,3.28,1.53,1.23-.53,1.8-1.95,1.28-3.18Z" fill="#00a3b5" stroke-width="0"/><path d="M184.65,41.13h-5.44c-.22,0-.42-.13-.5-.33-.91-2.12-5.9-13.76-6.07-14.16-.22-.5-.77-.86-1.38-.86-.46,0-.9.19-1.26.65l-6.15,8.34c-.89,1.19-.47,2.96.86,3.61,1.2.6,2.66.12,3.26-1.08,0,0,1.92-3.82,3.3-6.55.08-.16.31-.15.38.01l5.19,12.12c.2.47.66.77,1.16.77h6.68c.73,0,1.31-.61,1.26-1.35-.04-.67-.63-1.18-1.3-1.18Z" fill="#00a3b5" stroke-width="0"/><path d="M142.18,35.02c1-1.98,4.63-9.15,5.38-10.63.08-.17.07-.36-.04-.52-5.89-8.3-15.85-22.34-15.85-22.34-1.87-2.49-5.13-1.47-6.01.75l-17.74,38.52c-.09.19-.28.32-.5.32h-7.58c-.67,0-1.26.51-1.3,1.18-.05.74.54,1.35,1.26,1.35h8.78c.49,0,.94-.29,1.15-.74L126.32,6.9c.09-.19.35-.2.45-.01,1.47,2.78,4.47,8.45,7.43,14.04,3.2,6.06,6.36,12.01,7.46,14.1.11.21.42.21.52,0Z" fill="#00a3b5" stroke-width="0"/><path d="M147.84,38.39c-.09.18.06.4.26.36.81-.14,1.59-.46,2.3-.97,2.32-1.64,3.03-4.7,1.81-7.17-.09-.18-.36-.18-.45,0l-3.93,7.76Z" fill="#00a3b5" stroke-width="0"/><path d="M132.48,23.03c.25-.01.4-.28.28-.49l-.35-.66-1.22-2.3c-.11-.2-.31-.33-.54-.34l-7.38-.18c-.19,0-.37.11-.45.28l-1.72,3.73c-.11.23.07.49.32.48,3.7-.18,7.46-.35,11.06-.52Z" fill="#00a3b5" stroke-width="0"/><path d="M129.98,17.28l-1.31-2.48c-.1-.2-.3-.32-.52-.33-.89-.05-1.79-.09-2.69-.14-.2-.01-.38.1-.47.28l-1.17,2.55c-.1.22.06.47.3.48l5.56.13c.26,0,.43-.27.31-.49Z" fill="#00a3b5" stroke-width="0"/><path d="M97.88,24.64c3.09-.12,8.74-.39,15.3-.7.18,0,.34-.12.42-.28l1.99-4.32c.1-.22-.06-.47-.3-.48l-24.14-.58c-.27,0-.48.25-.42.51.32,1.4.89,2.56,1.65,3.57,1.3,1.72,2.71,2.39,5.51,2.28Z" fill="#00a3b5" stroke-width="0"/><path d="M117.86,14.4c.1-.22-.05-.47-.29-.48-11.36-.59-21.5-1.12-22.69-1.17-2.77-.12-4.44,1.02-4.44,3.39,0,.1,0,.2,0,.3,0,.22.19.4.41.41l25.27.61c.19,0,.37-.11.45-.28l1.28-2.77Z" fill="#00a3b5" stroke-width="0"/><path d="M135.49,28.53c-5.6.54-12.04,1.16-17.41,1.66-.17.02-.32.12-.39.28l-1.77,3.85c-.11.23.07.49.32.48,6.79-.31,14.88-.97,21.59-1.69.24-.03.37-.28.26-.49l-1.98-3.75c-.12-.23-.36-.36-.62-.33Z" fill="#00a3b5" stroke-width="0"/><path d="M110.01,31.43c.11-.23-.08-.5-.34-.48-1.42.12-2.41.2-2.79.21-.09,0-.17,0-.26,0-2.77,0-4.91-1.59-5.89-4.3-.07-.19-.25-.31-.45-.3-.59.03-1.76.08-2.33.1-.22,0-.45.01-.66.01-2.44,0-4.2-.63-5.66-2.08-.23-.22-.59-.24-.82-.02-.81.77-1.13,1.81-1,3.08.47,4.55,7.81,6.86,18.27,7.22.2,0,.38-.1.46-.28l1.46-3.17Z" fill="#00a3b5" stroke-width="0"/><path d="M133.65,25c-4.36.2-9,.42-13.45.63-.18,0-.34.12-.42.28l-1.04,2.27c-.11.24.08.5.34.48,4.9-.46,10.56-1,15.61-1.48.24-.02.38-.28.26-.49l-.71-1.35c-.11-.22-.34-.35-.59-.34Z" fill="#00a3b5" stroke-width="0"/><path d="M106.84,29.73c.43-.01,1.81-.13,3.82-.3.17-.02.33-.12.4-.28l1.22-2.65c.11-.23-.07-.49-.32-.48-3.51.17-6.68.32-9.29.44-.27.01-.44.3-.32.54.83,1.74,2.34,2.8,4.5,2.73Z" fill="#00a3b5" stroke-width="0"/></g></g><g id="uuid-ab4d0be9-6b8c-441a-a01c-435a2dbc3d14"><path d="M47.5,104.45c.1.89.42,1.53.96,1.94.54.41,1.34.61,2.4.61.52,0,.96-.06,1.31-.17.35-.11.64-.27.86-.46.22-.19.37-.41.46-.67.09-.26.13-.53.13-.83,0-.22-.03-.43-.09-.64-.06-.21-.18-.4-.34-.58-.16-.18-.39-.33-.67-.47-.28-.13-.63-.24-1.06-.31l-1.73-.32c-.68-.13-1.29-.29-1.82-.47s-.98-.44-1.34-.75c-.36-.31-.63-.69-.82-1.14-.18-.45-.28-1-.28-1.64s.13-1.21.39-1.69c.26-.48.62-.88,1.07-1.21s1-.56,1.62-.72c.63-.16,1.31-.24,2.04-.24.94,0,1.72.11,2.36.32.63.22,1.15.5,1.54.85.39.35.69.75.89,1.21.2.46.34.93.42,1.43l-2.17.34c-.18-.76-.48-1.32-.92-1.69-.44-.37-1.13-.55-2.08-.55-.54,0-1,.05-1.36.14-.36.09-.65.23-.87.4-.22.17-.38.37-.47.59-.09.22-.14.45-.14.69,0,.6.16,1.04.48,1.33.32.29.89.52,1.7.68l1.88.36c1.43.27,2.48.72,3.15,1.36.67.64,1.01,1.56,1.01,2.76,0,.57-.1,1.1-.31,1.59-.21.49-.53.91-.96,1.27-.43.36-.97.65-1.61.85-.64.21-1.38.31-2.23.31-1.74,0-3.1-.36-4.08-1.09-.99-.73-1.53-1.86-1.63-3.39h2.32Z" fill="#09305c" stroke-width="0"/><path d="M58.25,98.71h2.11v1.37c.41-.54.87-.96,1.4-1.24.53-.29,1.13-.43,1.81-.43s1.3.12,1.82.37c.52.25.95.6,1.3,1.05.35.46.61,1,.78,1.64.17.64.26,1.35.26,2.14s-.1,1.52-.3,2.18c-.2.65-.49,1.21-.86,1.67-.37.46-.83.82-1.36,1.06-.53.25-1.13.37-1.8.37-.53,0-1.05-.1-1.56-.3s-.98-.58-1.42-1.12v4.81h-2.17v-13.57ZM60.4,103.83c0,.65.07,1.18.21,1.61.14.42.33.76.56,1.02.23.25.51.43.82.53.31.1.64.15.98.15s.68-.06.99-.19c.3-.13.57-.33.8-.61.23-.28.41-.64.53-1.08.13-.44.19-.98.19-1.61s-.07-1.19-.2-1.62c-.13-.44-.31-.79-.53-1.06-.22-.27-.48-.47-.77-.58-.29-.11-.6-.17-.91-.17-.77,0-1.41.25-1.91.76-.5.51-.75,1.3-.75,2.39v.48Z" fill="#09305c" stroke-width="0"/><path d="M78.75,105.67c-.18,1.03-.61,1.82-1.31,2.38-.7.56-1.7.85-3,.85-1.57,0-2.76-.45-3.58-1.36-.82-.91-1.23-2.18-1.23-3.83,0-.85.12-1.6.35-2.26.23-.66.56-1.21.99-1.66.42-.45.93-.79,1.52-1.03.59-.23,1.24-.35,1.95-.35.76,0,1.42.12,1.98.35.56.23,1.02.56,1.39.99.37.42.64.93.82,1.52.18.59.27,1.24.27,1.97v.95h-7.09c.03.9.25,1.63.68,2.19.43.56,1.08.84,1.96.84.68,0,1.2-.13,1.54-.4s.57-.65.68-1.14h2.09ZM76.77,102.69c0-.81-.19-1.45-.57-1.92-.38-.47-.99-.7-1.82-.7s-1.41.24-1.82.71c-.42.47-.66,1.11-.72,1.91h4.94Z" fill="#09305c" stroke-width="0"/><path d="M89.82,105.14c-.13,1.18-.55,2.1-1.26,2.76-.72.67-1.74,1-3.07,1-.8,0-1.49-.12-2.08-.37-.59-.25-1.08-.6-1.47-1.05-.39-.46-.68-1-.87-1.64-.19-.64-.28-1.35-.28-2.14s.11-1.5.32-2.16c.22-.65.53-1.21.94-1.67.41-.46.92-.82,1.51-1.07.6-.25,1.27-.38,2.03-.38.7,0,1.29.09,1.77.28.48.18.88.43,1.2.74.32.31.56.67.74,1.07.18.41.3.83.38,1.27l-2.15.32c-.1-.56-.29-1.02-.58-1.39-.29-.37-.76-.55-1.43-.55-.48,0-.88.1-1.2.3-.32.2-.57.47-.76.79s-.33.69-.41,1.11c-.08.42-.12.84-.12,1.27,0,.49.04.96.13,1.39.09.43.23.8.42,1.11.19.31.44.56.76.74.32.18.7.28,1.16.28.66,0,1.16-.17,1.5-.52s.56-.85.65-1.49h2.19Z" fill="#09305c" stroke-width="0"/><path d="M94.17,95.03v2.15h-2.24v-2.15h2.24ZM94.14,98.71v9.88h-2.17v-9.88h2.17Z" fill="#09305c" stroke-width="0"/><path d="M102.82,107.3c-.37.44-.82.81-1.35,1.1s-1.18.44-1.94.44c-.47,0-.91-.06-1.31-.18-.41-.12-.76-.3-1.05-.54-.3-.24-.53-.55-.7-.92-.17-.37-.26-.81-.26-1.32,0-.68.15-1.24.46-1.66.3-.42.7-.76,1.19-1,.49-.24,1.04-.41,1.64-.5s1.22-.16,1.82-.18l1.46-.08v-.42c0-.75-.18-1.26-.54-1.55-.36-.29-.83-.43-1.42-.43-.67,0-1.17.11-1.49.34-.32.23-.54.56-.64.99l-1.98-.21c.18-.96.61-1.67,1.31-2.11.7-.44,1.65-.67,2.87-.67.79,0,1.43.1,1.95.3.51.2.92.48,1.23.84.3.35.52.78.64,1.26.12.49.18,1.02.18,1.61v6.17h-2.07v-1.29ZM101.4,103.98c-.65.04-1.17.11-1.57.21-.4.1-.71.23-.92.39-.22.16-.36.34-.43.55-.07.21-.1.43-.1.67,0,.43.14.77.41,1.01.27.24.67.36,1.21.36.95,0,1.65-.24,2.11-.72.46-.48.68-1.13.68-1.96v-.57l-1.39.06Z" fill="#09305c" stroke-width="0"/><path d="M109.68,95.03v13.57h-2.17v-13.57h2.17Z" fill="#09305c" stroke-width="0"/><path d="M114.56,95.03v2.15h-2.24v-2.15h2.24ZM114.52,98.71v9.88h-2.17v-9.88h2.17Z" fill="#09305c" stroke-width="0"/><path d="M118.72,105.57c.04.33.13.6.27.81s.31.38.52.5c.21.13.45.21.73.26.28.04.58.07.89.07.72,0,1.24-.11,1.56-.32.32-.22.48-.53.48-.95,0-.33-.1-.61-.29-.84-.2-.23-.6-.39-1.21-.49-.79-.14-1.48-.27-2.07-.4-.6-.13-1.1-.3-1.5-.52-.41-.22-.71-.51-.91-.85-.2-.35-.3-.82-.3-1.42,0-.46.1-.87.3-1.24.2-.37.48-.69.85-.95.36-.26.79-.46,1.29-.6.5-.14,1.05-.21,1.64-.21.76,0,1.39.08,1.9.23.51.15.92.36,1.24.63.32.27.56.57.72.91.16.34.29.7.38,1.08l-1.94.27c-.15-.49-.38-.86-.69-1.1-.31-.24-.83-.36-1.55-.36-.42,0-.76.04-1.03.11-.27.08-.48.17-.64.29-.16.11-.27.24-.32.38-.06.14-.09.28-.09.42,0,.22.03.39.08.53.05.14.14.25.28.34.13.09.31.16.54.23.23.06.51.13.86.19l1.23.21c.66.11,1.21.26,1.64.44.44.18.79.4,1.04.66.26.26.44.56.54.9.1.34.15.72.15,1.14,0,.9-.34,1.62-1.03,2.18-.68.55-1.72.83-3.12.83-.57,0-1.12-.05-1.64-.16-.53-.11-1-.29-1.42-.54-.42-.25-.76-.59-1.02-1.02-.26-.42-.41-.96-.45-1.61h2.07Z" fill="#09305c" stroke-width="0"/><path d="M126.64,100.42v-1.71h1.56v-2.66h2.15v2.66h2.45v1.71h-2.45v5.17c0,.51.1.87.31,1.1s.52.34.92.34c.22,0,.42-.01.62-.04.2-.03.39-.07.58-.13l.32,1.61c-.61.2-1.27.3-1.98.3-1.09,0-1.85-.28-2.28-.85-.43-.56-.65-1.41-.65-2.54v-4.98h-1.56Z" fill="#09305c" stroke-width="0"/><path d="M141.19,95.03v2.15h-2.24v-2.15h2.24ZM141.15,98.71v9.88h-2.17v-9.88h2.17Z" fill="#09305c" stroke-width="0"/><path d="M145.91,98.71v1.44c.44-.61.94-1.05,1.49-1.33.55-.28,1.14-.42,1.78-.42,2.2,0,3.31,1.22,3.31,3.65v6.54h-2.17v-6.19c0-.8-.15-1.36-.44-1.68-.29-.32-.72-.48-1.29-.48-.38,0-.73.07-1.05.2s-.6.31-.83.54-.41.49-.54.79c-.13.3-.2.61-.2.94v5.89h-2.15v-9.88h2.09Z" fill="#09305c" stroke-width="0"/><path d="M156.24,98.71l2.56,7.45,2.6-7.45h2.39l-3.93,9.88h-2.22l-3.91-9.88h2.51Z" fill="#09305c" stroke-width="0"/><path d="M173.77,105.67c-.18,1.03-.61,1.82-1.31,2.38-.7.56-1.7.85-3,.85-1.57,0-2.76-.45-3.58-1.36-.82-.91-1.23-2.18-1.23-3.83,0-.85.12-1.6.35-2.26.23-.66.56-1.21.99-1.66.42-.45.93-.79,1.52-1.03.59-.23,1.24-.35,1.95-.35.76,0,1.42.12,1.98.35.56.23,1.02.56,1.39.99.37.42.64.93.82,1.52.18.59.27,1.24.27,1.97v.95h-7.09c.03.9.25,1.63.68,2.19.43.56,1.08.84,1.96.84.68,0,1.2-.13,1.54-.4s.57-.65.68-1.14h2.09ZM171.79,102.69c0-.81-.19-1.45-.57-1.92-.38-.47-.99-.7-1.82-.7s-1.41.24-1.82.71c-.42.47-.66,1.11-.72,1.91h4.94Z" fill="#09305c" stroke-width="0"/><path d="M177.66,105.57c.04.33.13.6.27.81s.31.38.52.5c.21.13.45.21.73.26.28.04.58.07.89.07.72,0,1.24-.11,1.56-.32.32-.22.48-.53.48-.95,0-.33-.1-.61-.29-.84-.2-.23-.6-.39-1.21-.49-.79-.14-1.48-.27-2.07-.4-.6-.13-1.1-.3-1.5-.52-.41-.22-.71-.51-.91-.85-.2-.35-.3-.82-.3-1.42,0-.46.1-.87.3-1.24.2-.37.48-.69.85-.95.36-.26.79-.46,1.29-.6.5-.14,1.05-.21,1.64-.21.76,0,1.39.08,1.9.23.51.15.92.36,1.24.63.32.27.56.57.72.91.16.34.29.7.38,1.08l-1.94.27c-.15-.49-.38-.86-.69-1.1-.31-.24-.83-.36-1.55-.36-.42,0-.76.04-1.03.11-.27.08-.48.17-.64.29-.16.11-.27.24-.32.38-.06.14-.09.28-.09.42,0,.22.03.39.08.53.05.14.14.25.28.34.13.09.31.16.54.23.23.06.51.13.86.19l1.23.21c.66.11,1.21.26,1.64.44.44.18.79.4,1.04.66.26.26.44.56.54.9.1.34.15.72.15,1.14,0,.9-.34,1.62-1.03,2.18-.68.55-1.72.83-3.12.83-.57,0-1.12-.05-1.64-.16-.53-.11-1-.29-1.42-.54-.42-.25-.76-.59-1.02-1.02-.26-.42-.41-.96-.45-1.61h2.07Z" fill="#09305c" stroke-width="0"/><path d="M185.58,100.42v-1.71h1.56v-2.66h2.15v2.66h2.45v1.71h-2.45v5.17c0,.51.1.87.31,1.1s.52.34.92.34c.22,0,.42-.01.62-.04.2-.03.39-.07.58-.13l.32,1.61c-.61.2-1.27.3-1.98.3-1.09,0-1.85-.28-2.28-.85-.43-.56-.65-1.41-.65-2.54v-4.98h-1.56Z" fill="#09305c" stroke-width="0"/><path d="M195.79,98.71v1.43c.68-.95,1.49-1.5,2.43-1.65.24-.04.49-.06.76-.06.67.03,1.22.19,1.63.5.42.31.72.73.91,1.26.87-1.19,1.95-1.79,3.23-1.79,1.05,0,1.82.29,2.32.87.49.58.74,1.51.74,2.79v6.52h-2.17v-5.93c0-.48-.03-.88-.09-1.2-.06-.32-.16-.57-.28-.75-.12-.18-.28-.31-.47-.38-.19-.07-.41-.1-.65-.1-.38,0-.72.07-1.01.21-.29.14-.54.32-.73.55-.2.23-.35.48-.45.77-.1.28-.15.58-.15.88v5.95h-2.17v-6.14c0-.85-.13-1.43-.39-1.75-.26-.32-.62-.47-1.07-.47-.19,0-.42.04-.68.12-.27.08-.52.22-.77.41-.25.19-.46.44-.64.76-.18.32-.27.7-.27,1.16v5.91h-2.15v-9.88h2.09Z" fill="#09305c" stroke-width="0"/><path d="M219.13,105.67c-.18,1.03-.61,1.82-1.31,2.38-.7.56-1.7.85-3,.85-1.57,0-2.76-.45-3.58-1.36-.82-.91-1.23-2.18-1.23-3.83,0-.85.12-1.6.35-2.26.23-.66.56-1.21.99-1.66.42-.45.93-.79,1.52-1.03.59-.23,1.24-.35,1.95-.35.76,0,1.42.12,1.98.35.56.23,1.02.56,1.39.99.37.42.64.93.82,1.52.18.59.27,1.24.27,1.97v.95h-7.09c.03.9.25,1.63.68,2.19.43.56,1.08.84,1.96.84.68,0,1.2-.13,1.54-.4s.57-.65.68-1.14h2.09ZM217.16,102.69c0-.81-.19-1.45-.57-1.92-.38-.47-.99-.7-1.82-.7s-1.41.24-1.82.71c-.42.47-.66,1.11-.72,1.91h4.94Z" fill="#09305c" stroke-width="0"/><path d="M223.66,98.71v1.44c.44-.61.94-1.05,1.49-1.33.55-.28,1.14-.42,1.78-.42,2.2,0,3.31,1.22,3.31,3.65v6.54h-2.17v-6.19c0-.8-.15-1.36-.44-1.68-.29-.32-.72-.48-1.29-.48-.38,0-.73.07-1.05.2s-.6.31-.83.54-.41.49-.54.79c-.13.3-.2.61-.2.94v5.89h-2.15v-9.88h2.09Z" fill="#09305c" stroke-width="0"/><path d="M231.82,100.42v-1.71h1.56v-2.66h2.15v2.66h2.45v1.71h-2.45v5.17c0,.51.1.87.31,1.1s.52.34.92.34c.22,0,.42-.01.62-.04.2-.03.39-.07.58-.13l.32,1.61c-.61.2-1.27.3-1.98.3-1.09,0-1.85-.28-2.28-.85-.43-.56-.65-1.41-.65-2.54v-4.98h-1.56Z" fill="#09305c" stroke-width="0"/></g></g></svg>